<?xml version="1.0" encoding="UTF-8"?>
<svg version="1.1" viewBox="-500.0 -500.0 53000.0 35168.1"
     width="530.0mm" height="351.7mm"
     xmlns="http://www.w3.org/2000/svg">
  <!-- Front Fairing Cowl (520.0 x 341.7 mm) -->
  <g id="p01_front_fairing" class="isolated-part" data-name="Front Fairing Cowl" data-holes="8" data-width-mm="520.0" data-height-mm="341.7">
    <path class="compound-part" fill="#3b82f6" fill-opacity="0.35" stroke="#1e293b" stroke-width="25" fill-rule="evenodd" d="M 40256.1,0.0 L 39531.6,637.0 L 38693.7,1238.2 L 37749.2,1798.5 L 36706.1,2313.2 L 35573.2,2778.1 L 34360.0,3189.2 L 33076.6,3543.1 L 31733.9,3836.7 L 30343.0,4067.7 L 28915.8,4234.1 L 27464.0,4334.5 L 26000.0,4368.1 L 24536.0,4334.5 L 23084.2,4234.1 L 21657.0,4067.7 L 20266.1,3836.7 L 18923.4,3543.1 L 17640.0,3189.2 L 16426.8,2778.1 L 15293.9,2313.2 L 14250.8,1798.5 L 13306.3,1238.2 L 12468.4,637.0 L 11743.9,0.0 L 7800.0,3368.1 L 2600.0,9968.1 L 0.0,18768.1 L 2080.0,25368.1 L 6240.0,34168.1 L 11440.0,31088.1 L 18200.0,24048.1 L 21840.0,20968.1 L 26000.0,25368.1 L 30160.0,20968.1 L 33800.0,24048.1 L 40560.0,31088.1 L 45760.0,34168.1 L 49920.0,25368.1 L 52000.0,18768.1 L 49400.0,9968.1 L 44200.0,3368.1 Z M 13450.0,7768.1 L 13441.4,7855.9 L 13415.7,7940.3 L 13374.2,8018.1 L 13318.2,8086.3 L 13250.0,8142.2 L 13172.2,8183.8 L 13087.8,8209.4 L 13000.0,8218.1 L 12912.2,8209.4 L 12827.8,8183.8 L 12750.0,8142.2 L 12681.8,8086.3 L 12625.8,8018.1 L 12584.3,7940.3 L 12558.6,7855.9 L 12550.0,7768.1 L 12558.6,7680.3 L 12584.3,7595.9 L 12625.8,7518.1 L 12681.8,7449.9 L 12750.0,7393.9 L 12827.8,7352.3 L 12912.2,7326.7 L 13000.0,7318.1 L 13087.8,7326.7 L 13172.2,7352.3 L 13250.0,7393.9 L 13318.2,7449.9 L 13374.2,7518.1 L 13415.7,7595.9 L 13441.4,7680.3 Z M 39450.0,7768.1 L 39441.4,7855.9 L 39415.7,7940.3 L 39374.2,8018.1 L 39318.2,8086.3 L 39250.0,8142.2 L 39172.2,8183.8 L 39087.8,8209.4 L 39000.0,8218.1 L 38912.2,8209.4 L 38827.8,8183.8 L 38750.0,8142.2 L 38681.8,8086.3 L 38625.8,8018.1 L 38584.3,7940.3 L 38558.6,7855.9 L 38550.0,7768.1 L 38558.6,7680.3 L 38584.3,7595.9 L 38625.8,7518.1 L 38681.8,7449.9 L 38750.0,7393.9 L 38827.8,7352.3 L 38912.2,7326.7 L 39000.0,7318.1 L 39087.8,7326.7 L 39172.2,7352.3 L 39250.0,7393.9 L 39318.2,7449.9 L 39374.2,7518.1 L 39415.7,7595.9 L 39441.4,7680.3 Z M 10800.0,18768.1 L 10792.3,18846.1 L 10769.6,18921.1 L 10732.6,18990.3 L 10682.8,19050.9 L 10622.2,19100.7 L 10553.1,19137.6 L 10478.0,19160.4 L 10400.0,19168.1 L 10322.0,19160.4 L 10246.9,19137.6 L 10177.8,19100.7 L 10117.2,19050.9 L 10067.4,18990.3 L 10030.4,18921.1 L 10007.7,18846.1 L 10000.0,18768.1 L 10007.7,18690.0 L 10030.4,18615.0 L 10067.4,18545.8 L 10117.2,18485.2 L 10177.8,18435.5 L 10246.9,18398.5 L 10322.0,18375.8 L 10400.0,18368.1 L 10478.0,18375.8 L 10553.1,18398.5 L 10622.2,18435.5 L 10682.8,18485.2 L 10732.6,18545.8 L 10769.6,18615.0 L 10792.3,18690.0 Z M 42000.0,18768.1 L 41992.3,18846.1 L 41969.6,18921.1 L 41932.6,18990.3 L 41882.8,19050.9 L 41822.2,19100.7 L 41753.1,19137.6 L 41678.0,19160.4 L 41600.0,19168.1 L 41522.0,19160.4 L 41446.9,19137.6 L 41377.8,19100.7 L 41317.2,19050.9 L 41267.4,18990.3 L 41230.4,18921.1 L 41207.7,18846.1 L 41200.0,18768.1 L 41207.7,18690.0 L 41230.4,18615.0 L 41267.4,18545.8 L 41317.2,18485.2 L 41377.8,18435.5 L 41446.9,18398.5 L 41522.0,18375.8 L 41600.0,18368.1 L 41678.0,18375.8 L 41753.1,18398.5 L 41822.2,18435.5 L 41882.8,18485.2 L 41932.6,18545.8 L 41969.6,18615.0 L 41992.3,18690.0 Z M 15950.0,27568.1 L 15943.3,27636.4 L 15923.4,27702.0 L 15891.0,27762.5 L 15847.5,27815.6 L 15794.4,27859.1 L 15733.9,27891.4 L 15668.3,27911.4 L 15600.0,27918.1 L 15531.7,27911.4 L 15466.1,27891.4 L 15405.6,27859.1 L 15352.5,27815.6 L 15309.0,27762.5 L 15276.6,27702.0 L 15256.7,27636.4 L 15250.0,27568.1 L 15256.7,27499.8 L 15276.6,27434.1 L 15309.0,27373.6 L 15352.5,27320.6 L 15405.6,27277.1 L 15466.1,27244.7 L 15531.7,27224.8 L 15600.0,27218.1 L 15668.3,27224.8 L 15733.9,27244.7 L 15794.4,27277.1 L 15847.5,27320.6 L 15891.0,27373.6 L 15923.4,27434.1 L 15943.3,27499.8 Z M 36750.0,27568.1 L 36743.3,27636.4 L 36723.4,27702.0 L 36691.0,27762.5 L 36647.5,27815.6 L 36594.4,27859.1 L 36533.9,27891.4 L 36468.3,27911.4 L 36400.0,27918.1 L 36331.7,27911.4 L 36266.1,27891.4 L 36205.6,27859.1 L 36152.5,27815.6 L 36109.0,27762.5 L 36076.6,27702.0 L 36056.7,27636.4 L 36050.0,27568.1 L 36056.7,27499.8 L 36076.6,27434.1 L 36109.0,27373.6 L 36152.5,27320.6 L 36205.6,27277.1 L 36266.1,27244.7 L 36331.7,27224.8 L 36400.0,27218.1 L 36468.3,27224.8 L 36533.9,27244.7 L 36594.4,27277.1 L 36647.5,27320.6 L 36691.0,27373.6 L 36723.4,27434.1 L 36743.3,27499.8 Z M 28000.0,2868.1 L 28000.0,3868.1 L 24000.0,3868.1 L 24000.0,2868.1 Z M 29000.0,11468.1 L 29000.0,12868.1 L 23000.0,12868.1 L 23000.0,11468.1 Z" />
  </g>
</svg>
