<?xml version="1.0" encoding="UTF-8"?>
<svg version="1.1" viewBox="-500.0 -500.0 35560.0 8000.0"
     width="355.6mm" height="80.0mm"
     xmlns="http://www.w3.org/2000/svg">
  <!-- Exhaust Heat Shield (345.6 x 70.0 mm) -->
  <g id="p07_exhaust_heat_shield" class="isolated-part" data-name="Exhaust Heat Shield" data-holes="6" data-width-mm="345.6" data-height-mm="70.0">
    <path class="compound-part" fill="#64748b" fill-opacity="0.35" stroke="#1e293b" stroke-width="25" fill-rule="evenodd" d="M 34560.0,0.0 L 34412.2,391.6 L 33971.2,776.5 L 33244.6,1148.1 L 32244.9,1500.0 L 30989.1,1826.3 L 29498.8,2121.3 L 27799.4,2380.1 L 25920.0,2598.1 L 23892.8,2771.6 L 21752.4,2897.8 L 19535.5,2974.3 L 17280.0,3000.0 L 15024.5,2974.3 L 12807.6,2897.8 L 10667.2,2771.6 L 8640.0,2598.1 L 6760.6,2380.1 L 5061.2,2121.3 L 3570.9,1826.3 L 2315.1,1500.0 L 1315.4,1148.1 L 588.8,776.5 L 147.8,391.6 L 0.0,0.0 L 720.0,7000.0 L 861.7,6608.4 L 1284.3,6223.5 L 1980.6,5851.9 L 2938.6,5500.0 L 4142.1,5173.7 L 5570.3,4878.7 L 7198.9,4619.9 L 9000.0,4401.9 L 10942.8,4228.4 L 12994.0,4102.2 L 15118.5,4025.7 L 17280.0,4000.0 L 19441.5,4025.7 L 21566.0,4102.2 L 23617.2,4228.4 L 25560.0,4401.9 L 27361.1,4619.9 L 28989.7,4878.7 L 30417.9,5173.7 L 31621.4,5500.0 L 32579.4,5851.9 L 33275.7,6223.5 L 33698.3,6608.4 L 33840.0,7000.0 Z M 10530.0,1200.0 L 10530.0,1800.0 L 6030.0,1800.0 L 6030.0,1200.0 Z M 17730.0,1200.0 L 17730.0,1800.0 L 13230.0,1800.0 L 13230.0,1200.0 Z M 24930.0,1200.0 L 24930.0,1800.0 L 20430.0,1800.0 L 20430.0,1200.0 Z M 30300.0,1200.0 L 30300.0,1800.0 L 27300.0,1800.0 L 27300.0,1200.0 Z M 3280.0,1500.0 L 3272.3,1578.0 L 3249.6,1653.1 L 3212.6,1722.2 L 3162.8,1782.8 L 3102.2,1832.6 L 3033.1,1869.6 L 2958.0,1892.3 L 2880.0,1900.0 L 2802.0,1892.3 L 2726.9,1869.6 L 2657.8,1832.6 L 2597.2,1782.8 L 2547.4,1722.2 L 2510.4,1653.1 L 2487.7,1578.0 L 2480.0,1500.0 L 2487.7,1422.0 L 2510.4,1346.9 L 2547.4,1277.8 L 2597.2,1217.2 L 2657.8,1167.4 L 2726.9,1130.4 L 2802.0,1107.7 L 2880.0,1100.0 L 2958.0,1107.7 L 3033.1,1130.4 L 3102.2,1167.4 L 3162.8,1217.2 L 3212.6,1277.8 L 3249.6,1346.9 L 3272.3,1422.0 Z M 33160.0,1500.0 L 33152.3,1578.0 L 33129.6,1653.1 L 33092.6,1722.2 L 33042.8,1782.8 L 32982.2,1832.6 L 32913.1,1869.6 L 32838.0,1892.3 L 32760.0,1900.0 L 32682.0,1892.3 L 32606.9,1869.6 L 32537.8,1832.6 L 32477.2,1782.8 L 32427.4,1722.2 L 32390.4,1653.1 L 32367.7,1578.0 L 32360.0,1500.0 L 32367.7,1422.0 L 32390.4,1346.9 L 32427.4,1277.8 L 32477.2,1217.2 L 32537.8,1167.4 L 32606.9,1130.4 L 32682.0,1107.7 L 32760.0,1100.0 L 32838.0,1107.7 L 32913.1,1130.4 L 32982.2,1167.4 L 33042.8,1217.2 L 33092.6,1277.8 L 33129.6,1346.9 L 33152.3,1422.0 Z" />
  </g>
</svg>
