<?xml version="1.0" encoding="UTF-8"?>
<!DOCTYPE svg PUBLIC "-//W3C//DTD SVG 1.1//EN" "http://www.w3.org/Graphics/SVG/1.1/DTD/svg11.dtd">
<svg version="1.2" width="215.9mm" height="279.4mm" viewBox="0 0 21590 27940" preserveAspectRatio="xMidYMid" fill-rule="evenodd" stroke-width="28.222" stroke-linejoin="round" xmlns="http://www.w3.org/2000/svg" xmlns:ooo="http://xml.openoffice.org/svg/export" xmlns:xlink="http://www.w3.org/1999/xlink" xmlns:presentation="http://sun.com/xmlns/staroffice/presentation" xmlns:smil="http://www.w3.org/2001/SMIL20/" xmlns:anim="urn:oasis:names:tc:opendocument:xmlns:animation:1.0" xmlns:svg="urn:oasis:names:tc:opendocument:xmlns:svg-compatible:1.0" xml:space="preserve">
 <defs class="ClipPathGroup">
  <clipPath id="presentation_clip_path" clipPathUnits="userSpaceOnUse">
   <rect x="0" y="0" width="21590" height="27940"/>
  </clipPath>
  <clipPath id="presentation_clip_path_shrink" clipPathUnits="userSpaceOnUse">
   <rect x="21" y="27" width="21547" height="27885"/>
  </clipPath>
 </defs>
 <defs class="TextShapeIndex">
  <g ooo:slide="id1" ooo:id-list="id3 id4 id5 id6 id7 id8 id9 id10 id11 id12 id13 id14"/>
 </defs>
 <defs class="EmbeddedBulletChars">
  <g id="bullet-char-template-57356" transform="scale(0.00048828125,-0.00048828125)">
   <path d="M 580,1141 L 1163,571 580,0 -4,571 580,1141 Z"/>
  </g>
  <g id="bullet-char-template-57354" transform="scale(0.00048828125,-0.00048828125)">
   <path d="M 8,1128 L 1137,1128 1137,0 8,0 8,1128 Z"/>
  </g>
  <g id="bullet-char-template-10146" transform="scale(0.00048828125,-0.00048828125)">
   <path d="M 174,0 L 602,739 174,1481 1456,739 174,0 Z M 1358,739 L 309,1346 659,739 1358,739 Z"/>
  </g>
  <g id="bullet-char-template-10132" transform="scale(0.00048828125,-0.00048828125)">
   <path d="M 2015,739 L 1276,0 717,0 1260,543 174,543 174,936 1260,936 717,1481 1274,1481 2015,739 Z"/>
  </g>
  <g id="bullet-char-template-10007" transform="scale(0.00048828125,-0.00048828125)">
   <path d="M 0,-2 C -7,14 -16,27 -25,37 L 356,567 C 262,823 215,952 215,954 215,979 228,992 255,992 264,992 276,990 289,987 310,991 331,999 354,1012 L 381,999 492,748 772,1049 836,1024 860,1049 C 881,1039 901,1025 922,1006 886,937 835,863 770,784 769,783 710,716 594,584 L 774,223 C 774,196 753,168 711,139 L 727,119 C 717,90 699,76 672,76 641,76 570,178 457,381 L 164,-76 C 142,-110 111,-127 72,-127 30,-127 9,-110 8,-76 1,-67 -2,-52 -2,-32 -2,-23 -1,-13 0,-2 Z"/>
  </g>
  <g id="bullet-char-template-10004" transform="scale(0.00048828125,-0.00048828125)">
   <path d="M 285,-33 C 182,-33 111,30 74,156 52,228 41,333 41,471 41,549 55,616 82,672 116,743 169,778 240,778 293,778 328,747 346,684 L 369,508 C 377,444 397,411 428,410 L 1163,1116 C 1174,1127 1196,1133 1229,1133 1271,1133 1292,1118 1292,1087 L 1292,965 C 1292,929 1282,901 1262,881 L 442,47 C 390,-6 338,-33 285,-33 Z"/>
  </g>
  <g id="bullet-char-template-9679" transform="scale(0.00048828125,-0.00048828125)">
   <path d="M 813,0 C 632,0 489,54 383,161 276,268 223,411 223,592 223,773 276,916 383,1023 489,1130 632,1184 813,1184 992,1184 1136,1130 1245,1023 1353,916 1407,772 1407,592 1407,412 1353,268 1245,161 1136,54 992,0 813,0 Z"/>
  </g>
  <g id="bullet-char-template-8226" transform="scale(0.00048828125,-0.00048828125)">
   <path d="M 346,457 C 273,457 209,483 155,535 101,586 74,649 74,723 74,796 101,859 155,911 209,963 273,989 346,989 419,989 480,963 531,910 582,859 608,796 608,723 608,648 583,586 532,535 482,483 420,457 346,457 Z"/>
  </g>
  <g id="bullet-char-template-8211" transform="scale(0.00048828125,-0.00048828125)">
   <path d="M -4,459 L 1135,459 1135,606 -4,606 -4,459 Z"/>
  </g>
  <g id="bullet-char-template-61548" transform="scale(0.00048828125,-0.00048828125)">
   <path d="M 173,740 C 173,903 231,1043 346,1159 462,1274 601,1332 765,1332 928,1332 1067,1274 1183,1159 1299,1043 1357,903 1357,740 1357,577 1299,437 1183,322 1067,206 928,148 765,148 601,148 462,206 346,322 231,437 173,577 173,740 Z"/>
  </g>
 </defs>
 <g>
  <g id="id2" class="Master_Slide">
   <g id="bg-id2" class="Background"/>
   <defs>
    <g id="bo-id2" class="BackgroundObjects"/>
   </defs>
  </g>
 </g>
 <g class="SlideGroup">
  <g>
   <g id="container-id1">
    <g id="id1" class="Slide" clip-path="url(#presentation_clip_path)">
     <g class="Page">
      <use href="#bo-id2"/>
      <g class="Group">
       <g class="com.sun.star.drawing.ClosedBezierShape">
        <g id="id3">
         <rect class="BoundingBox" stroke="none" fill="none" x="1696" y="12180" width="18192" height="3587"/>
         <path fill="none" stroke="rgb(27,25,24)" stroke-width="20" stroke-linejoin="miter" d="M 5567,13030 C 5831,12958 6013,12917 6181,12877 6350,12837 6504,12799 6726,12751 6949,12702 7241,12643 7475,12599 7708,12555 7884,12526 8165,12486 8447,12447 8834,12396 9184,12357 9535,12318 9849,12290 10066,12272 10282,12253 10401,12246 10577,12235 10753,12225 10986,12213 11236,12204 11487,12195 11755,12190 12047,12190 12339,12190 12654,12193 12960,12202 13265,12210 13559,12223 13816,12235 14073,12247 14291,12260 14514,12277 14738,12295 14965,12318 15204,12342 15444,12365 15695,12390 15936,12419 16178,12447 16411,12480 16609,12511 16808,12541 16972,12569 17130,12597 17555,12671 18001,12726 18421,12815 18765,12888 19070,13200 19307,13450 19504,13656 19951,14185 19865,14477 19770,14733 19241,15036 19002,15140 18954,15161 18907,15180 18858,15198 18501,15331 18283,15211 17928,15120 16719,14811 15491,14653 14247,14576 13947,14558 13652,14544 13345,14534 12661,14512 11992,14516 11308,14539 10957,14551 10623,14567 10264,14592 9905,14616 9519,14650 9170,14686 8821,14721 8508,14759 8169,14808 7065,14970 6094,15196 5024,15503 4949,15524 4877,15540 4800,15552 3973,15675 3160,15681 2329,15736 2202,15744 1776,15803 1717,15663 1638,15476 2000,15205 2123,15103 2291,14964 2464,14831 2636,14697 2833,14542 3026,14393 3236,14232 3447,14070 3674,13897 3830,13776 4286,13421 4313,13404 4864,13236 5087,13169 5311,13102 5536,13039 L 5567,13030 Z "/>
        </g>
       </g>
       <g class="com.sun.star.drawing.ClosedBezierShape">
        <g id="id4">
         <rect class="BoundingBox" stroke="none" fill="none" x="6218" y="13132" width="1232" height="1439"/>
         <path fill="none" stroke="rgb(27,25,24)" stroke-width="20" stroke-linejoin="miter" d="M 6361,13767 C 6451,13909 6798,14494 6912,14545 7189,14670 7308,13947 7351,13768 7385,13630 7413,13506 7427,13426 7441,13346 7440,13309 7436,13278 7433,13248 7426,13224 7416,13206 7405,13189 7390,13177 7377,13168 7365,13159 7354,13152 7336,13147 7318,13143 7292,13140 7177,13149 7060,13160 6855,13183 6712,13199 6569,13216 6488,13227 6429,13238 6370,13250 6332,13262 6304,13281 6276,13300 6258,13325 6247,13354 6235,13382 6228,13413 6228,13448 6228,13484 6231,13525 6240,13556 6249,13586 6262,13608 6272,13625 6282,13642 6289,13655 6361,13767 Z "/>
        </g>
       </g>
       <g class="com.sun.star.drawing.OpenBezierShape">
        <g id="id5">
         <rect class="BoundingBox" stroke="none" fill="none" x="7755" y="12908" width="1195" height="1449"/>
         <path fill="none" stroke="rgb(27,25,24)" stroke-width="20" stroke-linejoin="miter" d="M 7934,13052 C 7820,13678 7799,13813 7785,13912 7772,14012 7765,14076 7765,14127 7765,14177 7768,14213 7776,14237 7784,14261 7795,14272 7819,14288 7842,14303 7878,14323 7913,14334 7948,14345 7983,14347 8074,14345 8163,14344 8307,14338 8439,14329 8570,14321 8690,14310 8765,14296 8839,14282 8869,14264 8890,14248 8911,14231 8924,14215 8931,14197 8938,14179 8940,14159 8937,14133 8934,14108 8927,14078 8916,14045 8904,14011 8888,13974 8833,13875 8778,13775 8684,13612 8608,13482 8533,13351 8477,13254 8431,13178 8385,13102 8348,13048 8317,13012 8286,12977 8261,12959 8233,12945 8206,12932 8175,12922 8147,12919 8120,12918 8096,12921 8069,12929 8041,12937 8011,12949 7971,12994 "/>
        </g>
       </g>
       <g class="com.sun.star.drawing.ClosedBezierShape">
        <g id="id6">
         <rect class="BoundingBox" stroke="none" fill="none" x="8727" y="12802" width="997" height="843"/>
         <path fill="none" stroke="rgb(27,25,24)" stroke-width="20" stroke-linejoin="miter" d="M 8750,12921 C 8677,13023 8931,13355 8998,13446 9157,13662 9257,13710 9458,13494 9565,13378 9886,12894 9592,12823 9464,12793 8832,12833 8750,12921 Z "/>
        </g>
       </g>
       <g class="com.sun.star.drawing.ClosedBezierShape">
        <g id="id7">
         <rect class="BoundingBox" stroke="none" fill="none" x="9624" y="12657" width="1517" height="1539"/>
         <path fill="none" stroke="rgb(27,25,24)" stroke-width="20" stroke-linejoin="miter" d="M 9688,14016 C 9712,14042 9746,14069 9780,14085 9913,14132 10589,14199 10736,14181 11055,14129 11062,13866 11096,13595 11122,13396 11155,13101 11098,12909 L 11090,12883 11083,12864 11072,12838 11058,12822 C 10953,12723 10655,12696 10518,12678 10466,12671 10415,12664 10363,12670 10328,12675 10296,12688 10272,12704 10248,12721 10233,12742 10220,12762 10097,12955 9617,13695 9634,13883 9639,13937 9653,13976 9688,14016 Z "/>
        </g>
       </g>
       <g class="com.sun.star.drawing.OpenBezierShape">
        <g id="id8">
         <rect class="BoundingBox" stroke="none" fill="none" x="11446" y="12638" width="1588" height="1564"/>
         <path fill="none" stroke="rgb(27,25,24)" stroke-width="20" stroke-linejoin="miter" d="M 11458,13078 C 11627,13982 11654,14050 11677,14093 11700,14136 11719,14153 11742,14165 11765,14177 11792,14184 11821,14188 11851,14192 11882,14192 12007,14172 12132,14152 12350,14110 12511,14081 12674,14051 12779,14034 12847,14020 12916,14005 12949,13995 12972,13978 12995,13960 13008,13937 13015,13911 13023,13885 13025,13856 13019,13817 13014,13778 13002,13728 12983,13680 12965,13632 12940,13587 12891,13508 12842,13428 12769,13312 12698,13196 12627,13080 12559,12963 12505,12879 12451,12796 12412,12747 12379,12715 12346,12682 12321,12667 12294,12659 12268,12650 12241,12648 12204,12648 12168,12648 12123,12652 12072,12663 12021,12674 11964,12692 11887,12716 11810,12740 11715,12769 11650,12794 11584,12819 11549,12840 11519,12871 11489,12901 11463,12941 11456,12996 "/>
        </g>
       </g>
       <g class="com.sun.star.drawing.ClosedBezierShape">
        <g id="id9">
         <rect class="BoundingBox" stroke="none" fill="none" x="12953" y="12549" width="888" height="966"/>
         <path fill="none" stroke="rgb(27,25,24)" stroke-width="20" stroke-linejoin="miter" d="M 13809,12652 C 13711,12520 13515,12565 13373,12572 12799,12598 12949,12778 13104,13189 13157,13329 13229,13551 13422,13494 13559,13454 13689,13169 13744,13047 13796,12929 13864,12779 13809,12652 Z "/>
        </g>
       </g>
       <g class="com.sun.star.drawing.ClosedBezierShape">
        <g id="id10">
         <rect class="BoundingBox" stroke="none" fill="none" x="13749" y="12616" width="1286" height="1583"/>
         <path fill="none" stroke="rgb(27,25,24)" stroke-width="20" stroke-linejoin="miter" d="M 13963,13394 C 13892,13540 13668,13922 13801,14067 13913,14188 14445,14183 14606,14186 15070,14192 15075,14175 14961,13692 14918,13510 14877,13320 14832,13140 14792,12975 14695,12510 14426,12654 14219,12765 14065,13184 13963,13394 Z "/>
        </g>
       </g>
       <g class="com.sun.star.drawing.ClosedBezierShape">
        <g id="id11">
         <rect class="BoundingBox" stroke="none" fill="none" x="15437" y="12754" width="1277" height="1588"/>
         <path fill="none" stroke="rgb(27,25,24)" stroke-width="20" stroke-linejoin="miter" d="M 15718,14012 C 15757,14166 15837,14385 16043,14318 16194,14269 16339,13935 16414,13790 16501,13622 16654,13329 16696,13151 L 16701,13130 C 16723,12898 16571,12854 16371,12829 16205,12808 15625,12740 15510,12772 15430,12796 15447,12879 15457,12950 15507,13288 15633,13676 15718,14012 Z "/>
        </g>
       </g>
       <g class="com.sun.star.drawing.OpenBezierShape">
        <g id="id12">
         <rect class="BoundingBox" stroke="none" fill="none" x="2651" y="14079" width="1786" height="1285"/>
         <path fill="none" stroke="rgb(27,25,24)" stroke-width="20" stroke-linejoin="miter" d="M 3773,14219 C 2756,15022 2724,15069 2702,15107 2680,15145 2668,15175 2663,15200 2659,15224 2661,15244 2670,15261 2679,15278 2695,15293 2721,15306 2746,15319 2782,15329 2830,15337 2878,15345 2938,15351 3020,15352 3103,15353 3205,15351 3343,15344 3481,15338 3655,15329 3794,15322 3933,15316 4038,15314 4114,15308 4191,15303 4240,15295 4279,15284 4317,15274 4345,15261 4365,15243 4385,15225 4398,15203 4408,15179 4417,15156 4422,15130 4424,15098 4427,15066 4426,15026 4417,14980 4409,14935 4393,14883 4370,14799 4346,14715 4315,14598 4289,14506 4263,14413 4240,14343 4222,14292 4203,14241 4187,14207 4173,14180 4159,14152 4148,14130 4135,14115 4121,14100 4106,14092 4080,14089 4054,14088 4017,14089 3905,14145 "/>
        </g>
       </g>
       <g class="com.sun.star.drawing.ClosedBezierShape">
        <g id="id13">
         <rect class="BoundingBox" stroke="none" fill="none" x="4723" y="14021" width="639" height="639"/>
         <path fill="none" stroke="rgb(27,25,24)" stroke-width="20" stroke-linejoin="miter" d="M 5041,14031 L 5041,14031 5042,14031 C 5096,14031 5150,14045 5197,14072 5243,14100 5282,14139 5310,14185 5337,14232 5351,14286 5351,14340 L 5351,14340 5351,14340 C 5351,14394 5337,14448 5310,14494 5282,14541 5243,14580 5197,14608 5150,14635 5096,14649 5042,14649 4988,14649 4934,14635 4888,14608 4841,14580 4802,14541 4774,14494 4747,14448 4733,14394 4733,14340 4733,14286 4747,14232 4774,14185 4802,14139 4841,14100 4888,14072 4934,14045 4987,14031 5041,14031 Z "/>
        </g>
       </g>
       <g class="com.sun.star.drawing.ClosedBezierShape">
        <g id="id14">
         <rect class="BoundingBox" stroke="none" fill="none" x="17611" y="13647" width="639" height="639"/>
         <path fill="none" stroke="rgb(27,25,24)" stroke-width="20" stroke-linejoin="miter" d="M 17929,13657 L 17929,13657 17930,13657 C 17984,13657 18038,13671 18085,13698 18131,13726 18170,13765 18198,13811 18225,13858 18239,13912 18239,13966 L 18239,13966 18239,13966 C 18239,14020 18225,14074 18198,14120 18170,14167 18131,14206 18085,14234 18038,14261 17984,14275 17930,14275 17876,14275 17822,14261 17776,14234 17729,14206 17690,14167 17662,14120 17635,14074 17621,14020 17621,13966 17621,13912 17635,13858 17662,13811 17690,13765 17729,13726 17776,13698 17822,13671 17875,13657 17929,13657 Z "/>
        </g>
       </g>
      </g>
     </g>
    </g>
   </g>
  </g>
 </g>
</svg>